<svg id="visual" viewBox="0 0 900 600" width="900" height="600" xmlns="http://www.w3.org/2000/svg" xmlns:xlink="http://www.w3.org/1999/xlink" version="1.1"><rect x="0" y="0" width="900" height="600" fill="#f2f2f2"></rect><defs><linearGradient id="grad1_0" x1="33.3%" y1="0%" x2="100%" y2="100%"><stop offset="20%" stop-color="#f2f2f2" stop-opacity="1"></stop><stop offset="80%" stop-color="#f2f2f2" stop-opacity="1"></stop></linearGradient></defs><defs><linearGradient id="grad2_0" x1="0%" y1="0%" x2="66.7%" y2="100%"><stop offset="20%" stop-color="#f2f2f2" stop-opacity="1"></stop><stop offset="80%" stop-color="#f2f2f2" stop-opacity="1"></stop></linearGradient></defs><g transform="translate(900, 0)"><path d="M0 486.7C-51.4 446.8 -102.8 406.9 -159.6 385.3C-216.4 363.7 -278.7 360.4 -330.9 330.9C-383.2 301.5 -425.4 245.8 -449.7 186.3C-474 126.7 -480.4 63.4 -486.7 0L0 0Z" fill="#6B21A8"></path></g><g transform="translate(0, 600)"><path d="M0 -486.7C64.7 -478.4 129.4 -470 183.7 -443.5C238 -416.9 281.9 -372.1 328.1 -328.1C374.3 -284.1 422.9 -240.8 449.7 -186.3C476.5 -131.7 481.6 -65.9 486.7 0L0 0Z" fill="#6B21A8"></path></g></svg>