<svg id="visual" viewBox="0 0 900 600" width="900" height="600" xmlns="http://www.w3.org/2000/svg" xmlns:xlink="http://www.w3.org/1999/xlink" version="1.1"><rect x="0" y="0" width="900" height="600" fill="#002233"></rect><path d="M594 600L593.8 585.7C593.7 571.3 593.3 542.7 599.8 514.2C606.3 485.7 619.7 457.3 623.8 428.8C628 400.3 623 371.7 613.5 343C604 314.3 590 285.7 597 257C604 228.3 632 199.7 641.3 171.2C650.7 142.7 641.3 114.3 638 85.8C634.7 57.3 637.3 28.7 638.7 14.3L640 0L900 0L900 14.3C900 28.7 900 57.3 900 85.8C900 114.3 900 142.7 900 171.2C900 199.7 900 228.3 900 257C900 285.7 900 314.3 900 343C900 371.7 900 400.3 900 428.8C900 457.3 900 485.7 900 514.2C900 542.7 900 571.3 900 585.7L900 600Z" fill="#0066FF" stroke-linecap="round" stroke-linejoin="miter"></path></svg>